<svg id="Layer_1" data-name="Layer 1" xmlns="http://www.w3.org/2000/svg" viewBox="0 0 412.14 96.79"><defs><style>.cls-1,.cls-2{fill:#1d1d1b;}.cls-1{stroke:#000;stroke-width:0.25px;}.cls-1,.cls-3,.cls-4,.cls-5{stroke-miterlimit:10;}.cls-3{fill:#94e2ff;}.cls-3,.cls-4,.cls-5{stroke:#1d1d1b;stroke-linecap:round;}.cls-4{fill:#0032bf;}.cls-5{fill:none;}</style></defs><title>logos</title><path class="cls-1" d="M485.92,187.62c2.59,0,4.92-3.93,6.33-6.48a47.94,47.94,0,0,0,3.78-8.93l1.81,1.2c-1,2.27-2.11,4.49-3.18,6.71-1.63,3.38-3.55,6.62-6.29,8.61l11.4,16.94h-2.41l-10.55-16.2h-.89v16.2h-1.74V172.35h1.74Z" transform="translate(-484.06 -171.21)"/><path class="cls-1" d="M516.87,206.18a22.74,22.74,0,0,1-.74-4.17c-1.37,2.45-2.81,4.17-5.37,4.17-3.59,0-5.44-3.66-5.44-7.78,0-4.67,2.11-8.7,5.89-8.7a10,10,0,0,1,4.78,1.62c.11-6.2-.78-8.79-4-8.79a9.53,9.53,0,0,0-4.7,1.62l-.41-2a11.81,11.81,0,0,1,5.22-1.48c3.59,0,5.74,3.15,5.63,8.61l-.22,10a25.11,25.11,0,0,0,1,6.62Zm-1-13.14a8.1,8.1,0,0,0-4.26-1.48c-3.26,0-4.55,3.42-4.55,7,0,2.73,1.22,5.74,3.7,5.74s3.92-2.45,5.11-5Z" transform="translate(-484.06 -171.21)"/><path class="cls-1" d="M540.12,183h-7.18v16.71c0,2.36.7,4.58,3.11,4.58,2.18,0,3.7-2,4.55-4.35l1.67.51c-1.22,3.15-3.37,5.69-6.29,5.69-2.52,0-4.77-1.53-4.77-7.73V183h-4.41v-1.85h4.41v-7.87h1.74v7.87h7.18Z" transform="translate(-484.06 -171.21)"/><path class="cls-1" d="M561.29,206.18a22.74,22.74,0,0,1-.74-4.17c-1.37,2.45-2.81,4.17-5.37,4.17-3.59,0-5.44-3.66-5.44-7.78,0-4.67,2.11-8.7,5.89-8.7a10,10,0,0,1,4.78,1.62c.11-6.2-.78-8.79-4-8.79a9.53,9.53,0,0,0-4.7,1.62l-.41-2a11.81,11.81,0,0,1,5.22-1.48c3.59,0,5.74,3.15,5.63,8.61l-.22,10a25.09,25.09,0,0,0,1,6.62Zm-1-13.14a8.1,8.1,0,0,0-4.26-1.48c-3.26,0-4.55,3.42-4.55,7,0,2.73,1.22,5.74,3.7,5.74s3.92-2.45,5.11-5Z" transform="translate(-484.06 -171.21)"/><path class="cls-1" d="M575.84,205.67H574.1V188.73l-.7-7.82h1.67l.67,6.94c1.3-3.38,3.33-7.17,6.7-7.17s4.11,4.07,4.11,7.4H584.8c0-2.27-.15-5.55-2.52-5.55-2,0-6.44,3.89-6.44,13.19Z" transform="translate(-484.06 -171.21)"/><path class="cls-1" d="M608,181.19V183l-12,20.78h12.48v1.85H593.83v-1.85L606,183H595.49v-1.85Z" transform="translate(-484.06 -171.21)"/><path class="cls-1" d="M631.22,181.19l-7.33,23.28c-1,3.33-2.7,9-6.15,9-2.22,0-3.85-2.18-4.52-4.67l1.48-1c.48,1.67,1.41,3.79,3,3.79,1.89,0,2.85-2.73,3.52-4.58l1.48-4.21-6.37-21.66h1.92L623.59,200l5.63-18.79Z" transform="translate(-484.06 -171.21)"/><path class="cls-1" d="M640.69,205.67H639V193.41a78.67,78.67,0,0,0-.78-12.5h1.63l.7,7h.07c.74-3.66,3.85-7.27,7-7.27,3.55,0,4.55,3.84,4.55,7.54v17.45h-1.74V189.24c0-2.82,0-6.71-3-6.71-2.81,0-6.63,3.52-6.63,13.05Z" transform="translate(-484.06 -171.21)"/><path class="cls-1" d="M672.34,206.18a22.74,22.74,0,0,1-.74-4.17c-1.37,2.45-2.81,4.17-5.37,4.17-3.59,0-5.44-3.66-5.44-7.78,0-4.67,2.11-8.7,5.89-8.7a10,10,0,0,1,4.78,1.62c.11-6.2-.78-8.79-4-8.79a9.53,9.53,0,0,0-4.7,1.62l-.41-2a11.81,11.81,0,0,1,5.22-1.48c3.59,0,5.74,3.15,5.63,8.61l-.22,10a25.09,25.09,0,0,0,1,6.62Zm-1-13.14a8.1,8.1,0,0,0-4.26-1.48c-3.26,0-4.55,3.42-4.55,7,0,2.73,1.22,5.74,3.7,5.74s3.92-2.45,5.11-5Z" transform="translate(-484.06 -171.21)"/><path class="cls-1" d="M707.55,175.36l-.07.09v30.22h-1.74V172.35h2.52l9.07,28.55.07-.09V172.35h1.74V206h-1.81Z" transform="translate(-484.06 -171.21)"/><path class="cls-1" d="M734,183h-5.7v-1.85h7.44v24.48H734Zm2.78-8.93a2.22,2.22,0,0,1-2,2.41,2.47,2.47,0,0,1,0-4.81A2.22,2.22,0,0,1,736.79,174.11Z" transform="translate(-484.06 -171.21)"/><path class="cls-1" d="M764,204a14.38,14.38,0,0,1-7,2.22c-5.74,0-7.85-6.43-7.85-12.63s2.18-12.87,8-12.87c3.29,0,7.18,3,7.18,13.1h-13.4c.33,8.61,3.18,10.55,6.18,10.55a10.54,10.54,0,0,0,6.18-2.41Zm-1.44-12c.19-4.21-1.81-9.4-5.66-9.4s-6.11,5.09-6,9.4Z" transform="translate(-484.06 -171.21)"/><path class="cls-1" d="M785.21,197.06a37,37,0,0,0,.89,8.84l-1.63.28-.7-4c-1,2.55-2.92,4-5.22,4-3.29,0-7.59-3.38-7.59-12.91,0-9.81,5-12.59,7.7-12.59a6.84,6.84,0,0,1,4.81,2.08V171.33h1.74Zm-1.74-12.13a6.29,6.29,0,0,0-4.37-2.41c-2.22,0-6.4,1.9-6.4,10.88,0,8.47,3.67,10.92,5.89,10.92,2.48,0,4.07-2.27,4.89-4.91Z" transform="translate(-484.06 -171.21)"/><path class="cls-1" d="M807.94,181.19V183l-12,20.78h12.47v1.85H793.72v-1.85L805.87,183H795.39v-1.85Z" transform="translate(-484.06 -171.21)"/><path class="cls-1" d="M822.86,183h-5.7v-1.85h7.44v24.48h-1.74Zm2.78-8.93a2.22,2.22,0,0,1-2,2.41,2.47,2.47,0,0,1,0-4.81A2.22,2.22,0,0,1,825.63,174.11Z" transform="translate(-484.06 -171.21)"/><path class="cls-1" d="M852.8,204a14.38,14.38,0,0,1-7,2.22c-5.74,0-7.85-6.43-7.85-12.63s2.18-12.87,8-12.87c3.29,0,7.18,3,7.18,13.1H839.7c.33,8.61,3.18,10.55,6.18,10.55a10.54,10.54,0,0,0,6.18-2.41Zm-1.44-12c.18-4.21-1.81-9.4-5.66-9.4s-6.11,5.09-6,9.4Z" transform="translate(-484.06 -171.21)"/><path class="cls-1" d="M867,173.18h-5.78v-1.85h7.51v34.34H867Z" transform="translate(-484.06 -171.21)"/><path class="cls-1" d="M894.45,206.18a22.74,22.74,0,0,1-.74-4.17c-1.37,2.45-2.81,4.17-5.37,4.17-3.59,0-5.44-3.66-5.44-7.78,0-4.67,2.11-8.7,5.89-8.7a10,10,0,0,1,4.78,1.62c.11-6.2-.78-8.79-4-8.79a9.53,9.53,0,0,0-4.7,1.62l-.41-2a11.81,11.81,0,0,1,5.22-1.48c3.59,0,5.74,3.15,5.63,8.61l-.22,10a25.13,25.13,0,0,0,1,6.62Zm-1-13.14a8.1,8.1,0,0,0-4.26-1.48c-3.26,0-4.55,3.42-4.55,7,0,2.73,1.22,5.74,3.7,5.74s3.92-2.45,5.11-5Z" transform="translate(-484.06 -171.21)"/><path class="cls-2" d="M715.79,257.33q.11,0,.11.22a1.57,1.57,0,0,1-.27.74,17,17,0,0,1-1.05,1.51,10.59,10.59,0,0,1-1.08,1.18,5.11,5.11,0,0,1-.44.37q-.24.18-.53.36a2,2,0,0,1-1,.35,1.1,1.1,0,0,1-.89-.59,7.29,7.29,0,0,1-.69-1.35l-.3-.77-.31-.79q-.31-.8-.53-.8t-.72.62q-.4.62-1,1.85a17.8,17.8,0,0,1-1,1.87q-.43.64-.78.64a.71.71,0,0,1-.71-.55,8.21,8.21,0,0,1-.21-1.89q0-.67,0-1.12t0-.71a1.27,1.27,0,0,0-.32-.83q-.27,0-.79.71a13.71,13.71,0,0,0-.93,1.4q-.4.7-.77,1.39l-.22.43-.22.42q-.18.36-.32.62l-.26.44a.63.63,0,0,1-.53.36.77.77,0,0,1-.76-.67,6.22,6.22,0,0,1-.18-1.5q0-.27,0-.54t0-.52q0-.26.08-.59t.12-.76q.14-.83.21-1.23.08-.56.13-1a6.06,6.06,0,0,0,0-.67.55.55,0,0,1,.11-.35.35.35,0,0,1,.3-.14q.76,0,.76,1.17,0,.31,0,.69t-.1.79q-.06.41-.14.83l-.14.8a10.78,10.78,0,0,0-.14,1.27,5.56,5.56,0,0,0,.52-.7q.31-.48.73-1.23t.8-1.33q.37-.58.69-1a1.79,1.79,0,0,1,1.38-.81.39.39,0,0,1,.25.07,2.22,2.22,0,0,1,.59,1.31q.09.49.16,1t.13,1.15q.1,1.19.2,1.19t.49-.67l.15-.3.27-.52.27-.53.17-.33a9.38,9.38,0,0,1,1-1.64,1.38,1.38,0,0,1,1-.64.66.66,0,0,1,.64.35,3,3,0,0,1,.2.44q.1.27.22.64t.25.81q.12.36.23.65a5.21,5.21,0,0,0,.25.57,4.11,4.11,0,0,0,.33.54,1.07,1.07,0,0,0,.86.53q.52,0,1.5-1,.49-.49,1-1l1.06-1.18a.25.25,0,0,1,.17-.1Zm12.52-.67a2.27,2.27,0,0,1-.15.74,3.15,3.15,0,0,1-.4.77,9.93,9.93,0,0,1-.72.91q-.4.45-.84.87t-.89.77a9.28,9.28,0,0,1-.87.61,5.27,5.27,0,0,1-.8.41,1.81,1.81,0,0,1-.66.15,1.36,1.36,0,0,1-.63-.14,1.45,1.45,0,0,1-.46-.37,2.11,2.11,0,0,1-.32-.55,5.65,5.65,0,0,1-.23-.67,7.12,7.12,0,0,1-.16-.72l-.11-.72-.43.73-.5.82q-.26.42-.53.81t-.51.68a6.63,6.63,0,0,1-.58.61,4.39,4.39,0,0,1-.67.51,3.69,3.69,0,0,1-.74.35,2.47,2.47,0,0,1-.8.13,1.06,1.06,0,0,1-.95-.55,2.42,2.42,0,0,1-.34-1.28,5.37,5.37,0,0,1,0-.71q0-.37.11-.74l.13-.72q.06-.35.08-.67,0-.13,0-.32t0-.45v-.42q0-.19,0-.37t0-.35q0-.17,0-.36a1.11,1.11,0,0,1,.21-.5.59.59,0,0,1,.5-.21q.7,0,.7,1.08a2.77,2.77,0,0,1,0,.41q0,.23-.08.47l-.1.5q0,.25-.09.49l-.15.67q-.08.33-.14.65t-.1.61a4.22,4.22,0,0,0,0,.54,1.51,1.51,0,0,0,0,.29,1.42,1.42,0,0,0,.09.3.68.68,0,0,0,.16.23.35.35,0,0,0,.24.09,1.56,1.56,0,0,0,.82-.25,4.41,4.41,0,0,0,.79-.62,8.31,8.31,0,0,0,.71-.79q.33-.42.58-.77a6.75,6.75,0,0,0,.48-.83q.24-.48.46-1t.42-1l.36-.92q.36-.94.64-.94a.38.38,0,0,1,.27.07.45.45,0,0,1,.07.29,4.14,4.14,0,0,1,0,.46q0,.29-.08.61t-.08.61a4.11,4.11,0,0,0,0,.45q0,.15,0,.35t0,.43q0,.22,0,.44a3.48,3.48,0,0,0,0,.37,4,4,0,0,0,.11.44,3.36,3.36,0,0,0,.19.51,1.6,1.6,0,0,0,.29.42.52.52,0,0,0,.39.17,2.06,2.06,0,0,0,.94-.27,7,7,0,0,0,1.07-.7,13,13,0,0,0,1.09-1q.54-.53,1-1.05l.37-.41a4.33,4.33,0,0,1,.34-.34,1.14,1.14,0,0,1,.25-.18Q728.31,256.55,728.31,256.67Zm-.25-1a2.86,2.86,0,0,1,.26-.36,3.08,3.08,0,0,1,.32-.33,2.2,2.2,0,0,1,.32-.24.54.54,0,0,1,.26-.09.48.48,0,0,1,.22.05.64.64,0,0,1,.18.14.73.73,0,0,1,.13.19.51.51,0,0,1,0,.22.92.92,0,0,1-.1.42,2.31,2.31,0,0,1-.26.4,4.55,4.55,0,0,1-.34.38l-.34.35a2.81,2.81,0,0,0-.26.32.56.56,0,0,0-.11.28,2.35,2.35,0,0,0,.31.54,4.51,4.51,0,0,0,.45.51q.26.25.55.5l.61.5a2.37,2.37,0,0,1,.3.29l.22.27.15.2q.06.08.1.08a.36.36,0,0,0,.16-.07l.25-.2.32-.29.36-.37q.44-.46.89-1l.84-1q.39-.47.68-.79t.42-.32a.2.2,0,0,1,.13,0,.21.21,0,0,1,.06.1.54.54,0,0,1,0,.14q0,.08,0,.15a.88.88,0,0,1-.12.32q-.12.23-.31.54t-.44.66l-.5.7-.49.64q-.24.3-.42.5l-.38.41-.36.38-.41.44-.54.58q-.25.27-.47.55l-.44.56-.44.55q-.23.28-.48.54a7.49,7.49,0,0,1-.81.71,1.29,1.29,0,0,1-.77.29,1,1,0,0,1-.53-.14.43.43,0,0,1-.21-.38.76.76,0,0,1,.18-.48,2.49,2.49,0,0,1,.44-.42,5.87,5.87,0,0,1,.57-.38l.57-.36a2.61,2.61,0,0,0,.82-.82,1.74,1.74,0,0,0,.27-.9,1.21,1.21,0,0,0-.34-.73,6.12,6.12,0,0,0-1.13-1,3.12,3.12,0,0,1-.46-.4,3.06,3.06,0,0,1-.35-.44,2.36,2.36,0,0,1-.22-.42,1,1,0,0,1-.08-.36,4.64,4.64,0,0,1,0-.56,2.57,2.57,0,0,1,.11-.49,3.52,3.52,0,0,1,.21-.5Q727.86,256,728.06,255.67ZM742,257.72a.86.86,0,0,1,.07.29,1.11,1.11,0,0,1-.14.49,6.24,6.24,0,0,1-.4.7q-.26.39-.6.83t-.71.89q-.43.51-.9,1t-1,.92a3.16,3.16,0,0,1-1.91.89,1.68,1.68,0,0,1-1.44-.69,4.08,4.08,0,0,1-.69-1.69,11,11,0,0,1-.18-2q0-.44.09-1.36,0-.46.09-.79a4.79,4.79,0,0,1,.1-.54,1.39,1.39,0,0,1,.45-.7,1.09,1.09,0,0,1,.73-.32q.21,0,.21.44a5,5,0,0,1,0,.66q0,.37-.1.73-.1.67-.15,1.21t0,.93a7.34,7.34,0,0,0,.21,1.74q.21.9.77.9a2.6,2.6,0,0,0,1.31-.46q.37-.24.75-.53a9.51,9.51,0,0,0,.75-.65q.38-.36.73-.72t.69-.75q.34-.38.6-.72t.47-.61l0-.06,0-.08,0-.06a0,0,0,0,1,0,0q.11,0,.16.19ZM737,251.07a1.68,1.68,0,0,1-.26.95.82.82,0,0,1-.74.39,2.6,2.6,0,0,1-.68-.1q-.37-.1-.37-.33a1.5,1.5,0,0,1,.23-.8,2.13,2.13,0,0,1,.56-.62.9.9,0,0,1,.34-.17,1.4,1.4,0,0,1,.67.13A.58.58,0,0,1,737,251.07Zm14.11,5.39a1,1,0,0,1,0,.19,2,2,0,0,1-.06.23l-.08.22a.69.69,0,0,1-.09.17q-.4.6-.88,1.22t-1,1.23q-.55.6-1.15,1.15a13.24,13.24,0,0,1-1.23,1,7,7,0,0,1-.74.44,7.61,7.61,0,0,1-.84.37,6.13,6.13,0,0,1-.88.26,4.24,4.24,0,0,1-.87.09,2,2,0,0,1-.95-.22,2.07,2.07,0,0,1-.69-.59,2.74,2.74,0,0,1-.43-.87,3.67,3.67,0,0,1-.15-1.05v0a6.35,6.35,0,0,1,.43-2.27,11.72,11.72,0,0,1,1.15-2.24l.38-.49a5.34,5.34,0,0,1,.47-.51,2.94,2.94,0,0,1,.53-.4,1.06,1.06,0,0,1,.54-.16.6.6,0,0,1,.34.11,1.4,1.4,0,0,1,.31.29,2.73,2.73,0,0,1,.27.41,3.75,3.75,0,0,1,.35.95,2,2,0,0,1,0,.41,1.61,1.61,0,0,1,0,.26,2.26,2.26,0,0,1-.09.35,1.28,1.28,0,0,1-.15.3.24.24,0,0,1-.19.13.45.45,0,0,1-.26-.07.6.6,0,0,1-.18-.18.94.94,0,0,1-.11-.25,1.87,1.87,0,0,1-.05-.27,3.42,3.42,0,0,0-.18-.76q-.11-.3-.24-.3a.57.57,0,0,0-.34.15,2.78,2.78,0,0,0-.4.41,5.53,5.53,0,0,0-.41.58,6.9,6.9,0,0,0-.36.66,5.53,5.53,0,0,0-.28.69,7.9,7.9,0,0,0-.22.79q-.09.41-.15.81a5.8,5.8,0,0,0-.05.76,1.27,1.27,0,0,0,.11.5,1.8,1.8,0,0,0,.28.46,1.5,1.5,0,0,0,.39.33.87.87,0,0,0,.45.13,4.39,4.39,0,0,0,.92-.09,4.48,4.48,0,0,0,.85-.27A5.91,5.91,0,0,0,746,261q.4-.25.8-.56a11.11,11.11,0,0,0,1.09-1q.52-.52,1-1t.82-1l.61-.79.21-.27a1.18,1.18,0,0,1,.16-.18.63.63,0,0,1,.15-.1.38.38,0,0,1,.16,0s.08,0,.13.13A.51.51,0,0,1,751.16,256.47Zm6.75,1.25a.86.86,0,0,1,.07.29,1.11,1.11,0,0,1-.14.49,6.24,6.24,0,0,1-.4.7q-.26.39-.6.83t-.71.89q-.43.51-.9,1t-1,.92a3.16,3.16,0,0,1-1.91.89,1.68,1.68,0,0,1-1.44-.69,4.08,4.08,0,0,1-.69-1.69,11,11,0,0,1-.18-2q0-.44.09-1.36,0-.46.09-.79a4.79,4.79,0,0,1,.1-.54,1.39,1.39,0,0,1,.45-.7,1.09,1.09,0,0,1,.73-.32q.21,0,.21.44a5,5,0,0,1,0,.66q0,.37-.1.73-.1.67-.15,1.21t0,.93a7.34,7.34,0,0,0,.21,1.74q.21.9.77.9a2.6,2.6,0,0,0,1.31-.46q.37-.24.75-.53a9.51,9.51,0,0,0,.75-.65q.38-.36.73-.72t.69-.75q.34-.38.6-.72t.47-.61l0-.06,0-.08,0-.06a0,0,0,0,1,0,0q.11,0,.16.19ZM753,251.07a1.68,1.68,0,0,1-.26.95.82.82,0,0,1-.74.39,2.6,2.6,0,0,1-.68-.1q-.37-.1-.37-.33a1.5,1.5,0,0,1,.23-.8,2.13,2.13,0,0,1,.56-.62.9.9,0,0,1,.34-.17,1.4,1.4,0,0,1,.67.13A.58.58,0,0,1,753,251.07Zm14.44,5.38q.18,0,.18.31a1.5,1.5,0,0,1-.15.62,4.15,4.15,0,0,1-.33.6,12.82,12.82,0,0,1-1,1.33q-.52.6-1.06,1.14a5.24,5.24,0,0,1-1.11.88,2.06,2.06,0,0,1-1,.32.78.78,0,0,1-.38-.1,1.52,1.52,0,0,1-.35-.27,1.84,1.84,0,0,1-.29-.39,2.11,2.11,0,0,1-.19-.46,2.78,2.78,0,0,1-.07-.29l-.06-.31a1.62,1.62,0,0,0-.07-.24q0-.1-.08-.1s-.06,0-.13.11l-.23.29-.29.39-.3.42-.27.38-.19.26a6.13,6.13,0,0,1-.56.61q-.32.31-.65.57a5.73,5.73,0,0,1-.6.42.93.93,0,0,1-.4.16,1.52,1.52,0,0,1-.56-.11,1.39,1.39,0,0,1-.48-.31,1.55,1.55,0,0,1-.33-.5,1.74,1.74,0,0,1-.13-.68,5.46,5.46,0,0,1,.23-1.44,12,12,0,0,1,.6-1.65,13,13,0,0,1,.85-1.61,8.56,8.56,0,0,1,1-1.33,4.11,4.11,0,0,1,1.26-.94,3.22,3.22,0,0,1,1.36-.3.42.42,0,0,1,.23.06.59.59,0,0,1,.16.15,1.23,1.23,0,0,1,.12.21l.11.23a.51.51,0,0,0,.13.17l.21.19.19.19a.28.28,0,0,1,.08.18,1.4,1.4,0,0,1-.06.4l-.14.5q-.08.29-.14.65a4.76,4.76,0,0,0-.06.83,5.63,5.63,0,0,0,0,.7,4.84,4.84,0,0,0,.15.75,2.13,2.13,0,0,0,.26.59.45.45,0,0,0,.37.24,1,1,0,0,0,.52-.17,5,5,0,0,0,.6-.47,14.43,14.43,0,0,0,1.42-1.46q.67-.79,1.37-1.58a.33.33,0,0,1,.23-.14Zm-5.8-.67a.52.52,0,0,0,0-.09.77.77,0,0,0-.07-.16.66.66,0,0,0-.11-.15.2.2,0,0,0-.14-.06h0a1.7,1.7,0,0,0-.6.21,3,3,0,0,0-.68.54,7.06,7.06,0,0,0-.76.93,13,13,0,0,0-.82,1.39l-.29.54a6.55,6.55,0,0,0-.3.65,5.42,5.42,0,0,0-.24.76,3.64,3.64,0,0,0-.1.85.48.48,0,0,0,.17.4.56.56,0,0,0,.36.14.91.91,0,0,0,.5-.23,5.28,5.28,0,0,0,.66-.62,11.25,11.25,0,0,0,.73-.89q.37-.5.69-1a10.49,10.49,0,0,0,.55-1,4.36,4.36,0,0,0,.32-.93l.05-.3.06-.35,0-.32A2,2,0,0,0,761.63,255.78ZM776.94,261a1.46,1.46,0,0,1-.18.66,2.28,2.28,0,0,1-.54.67,3,3,0,0,1-.88.52,3.25,3.25,0,0,1-1.21.21,2.64,2.64,0,0,1-1.21-.27A2.29,2.29,0,0,1,772,262a4.42,4.42,0,0,1-.55-1.45,10.22,10.22,0,0,1-.19-2.1,2.56,2.56,0,0,0-.36.35l-.53.61-.61.76-.6.79-.51.7q-.23.32-.33.5l-.31.54a2.66,2.66,0,0,1-.21.35.62.62,0,0,1-.21.19.64.64,0,0,1-.29.06.8.8,0,0,1-.53-.2.65.65,0,0,1-.15-.2.51.51,0,0,1-.05-.22q0-.15,0-.35t0-.41q0-.21.06-.41l.05-.37q.08-.45.17-1.06t.15-1.48l.07-1q0-.49,0-1a2.26,2.26,0,0,1,.05-.5,1.4,1.4,0,0,1,.16-.42.93.93,0,0,1,.27-.29.69.69,0,0,1,.39-.11.64.64,0,0,1,.27.05.43.43,0,0,1,.17.14.47.47,0,0,1,.08.19,1.24,1.24,0,0,1,0,.22,2.06,2.06,0,0,1,0,.25,1.79,1.79,0,0,0,0,.22s0,.08,0,.19,0,.25-.06.42l-.1.57-.12.63q-.13.66-.19,1.05t-.08.68q0,.29,0,.53t0,.6q.17-.26.47-.64l.63-.79.63-.79q.3-.38.48-.64a7.23,7.23,0,0,1,.47-.62,3.65,3.65,0,0,1,.49-.49,2.11,2.11,0,0,1,.53-.32,1.58,1.58,0,0,1,.6-.12q.22,0,.28.12a.63.63,0,0,1,.06.29s0,.09,0,.14,0,.1,0,.14a2.21,2.21,0,0,1,0,.24l0,.38,0,.38q0,.18,0,.25a8.62,8.62,0,0,0,.1,1.36,3.74,3.74,0,0,0,.32,1.07,1.75,1.75,0,0,0,.59.7,1.57,1.57,0,0,0,.9.25,3.49,3.49,0,0,0,.61,0,2.06,2.06,0,0,0,.5-.16,3.31,3.31,0,0,0,.49-.28q.25-.17.56-.43l.15-.13.12-.09a.19.19,0,0,1,.1,0Zm7.48.28a4.92,4.92,0,0,1,.31,1.5,3,3,0,0,1-.27.85,4,4,0,0,1-.42.83,3.78,3.78,0,0,1-1,.82l-.11,0-.2.05-.2.05-.13,0a2.33,2.33,0,0,1-1,.3q-.22,0-.22-.4a.32.32,0,0,1,.05-.21,3.31,3.31,0,0,0,1.73-1,2.83,2.83,0,0,0,.31-.58,1.78,1.78,0,0,0,.18-.59,6.72,6.72,0,0,0-.09-.93.8.8,0,0,0-.12-.3.64.64,0,0,1-.1-.32,1,1,0,0,1,.11-.38q.1-.23.21-.23a1.68,1.68,0,0,1,.54.15q.37.15.4.27Zm22.07-2.65a1,1,0,0,1-.14.54,6.87,6.87,0,0,1-.44.7q-.26.37-.56.75t-.61.74l-.58.65-.55.55a6.15,6.15,0,0,1-.61.52,3.68,3.68,0,0,1-.65.39,1.56,1.56,0,0,1-.66.15,1.88,1.88,0,0,1-.4,0,1.14,1.14,0,0,1-.28-.1,1.47,1.47,0,0,1-.5-.49,3,3,0,0,1-.34-.77,5.7,5.7,0,0,1-.19-1,11.75,11.75,0,0,1-.06-1.25q0-1,.1-2.08t.21-2.12q-.25.16-.63.36l-.79.39q-.42.19-.85.35a6.87,6.87,0,0,1-.77.25l-.47.12-.47.12-.5.11-.55.11q-.07.73-.13,1.82T795,262q0,.56-.06,1.11t-.13,1q-.08.49-.19.91t-.22.74a4,4,0,0,1-1,1.61,2.45,2.45,0,0,1-1.68.58.57.57,0,0,1-.3-.11,1.44,1.44,0,0,1-.31-.28,1.73,1.73,0,0,1-.24-.38,1,1,0,0,1-.1-.41.3.3,0,0,1,.08-.2.21.21,0,0,1,.15-.09l.17,0,.24.08.31.08a2.05,2.05,0,0,0,.39,0,1.5,1.5,0,0,0,.48-.07,1.21,1.21,0,0,0,.34-.17,1.12,1.12,0,0,0,.24-.25,2.61,2.61,0,0,0,.18-.29,4.47,4.47,0,0,0,.29-1.14,19.41,19.41,0,0,0,.21-2.27q0-.7.05-1.33t0-1.15q0-.52,0-.93t0-.67a1,1,0,0,0-.08-.47q-.08-.14-.35-.14h-.35l-.14,0-.13,0-.32,0a.42.42,0,0,1-.21-.07.9.9,0,0,1-.21-.17,1,1,0,0,1-.16-.23.56.56,0,0,1-.06-.24q0-.2.22-.21a4.72,4.72,0,0,0,.84-.15l.75-.23a.51.51,0,0,0,.25-.28,2.12,2.12,0,0,0,.18-.54q0-.2.1-.53l.12-.68.12-.67q.06-.32.1-.54a4,4,0,0,1,.35-1,4.35,4.35,0,0,1,.6-.91,3,3,0,0,1,.76-.64,1.66,1.66,0,0,1,.84-.24,1.2,1.2,0,0,1,.66.17,1.42,1.42,0,0,1,.43.42,1.77,1.77,0,0,1,.24.55,2.31,2.31,0,0,1,.07.55,1.33,1.33,0,0,1-.06.35,2.61,2.61,0,0,1-.16.42,1.38,1.38,0,0,1-.24.35.39.39,0,0,1-.28.15s0,0-.06-.12,0-.17-.05-.27l0-.32a1.33,1.33,0,0,0-.05-.24q-.05-.16-.13-.34a1.33,1.33,0,0,0-.18-.31.94.94,0,0,0-.26-.23.65.65,0,0,0-.34-.09.38.38,0,0,0-.28.17,2.11,2.11,0,0,0-.28.48,5.85,5.85,0,0,0-.26.74q-.13.43-.23,1-.16.8-.23,1.4t-.08,1l.48-.09.61-.11L797,256l.5-.12a8.27,8.27,0,0,0,1.59-.57,5.54,5.54,0,0,0,.75-.43,2.56,2.56,0,0,0,.57-.52q.13-.64.23-1.22a10.9,10.9,0,0,1,.25-1.14q.08-.27.17-.51a2.6,2.6,0,0,1,.2-.41,1.17,1.17,0,0,1,.23-.28.38.38,0,0,1,.25-.1.52.52,0,0,1,.24.06.94.94,0,0,1,.23.17.85.85,0,0,1,.17.24.63.63,0,0,1,.06.27,2.14,2.14,0,0,1,0,.31q0,.2-.08.42t-.11.45q-.06.23-.11.39-.21.62-.39,1.11a4.35,4.35,0,0,0-.23.76q-.09.55-.18,1.21t-.15,1.3q-.06.64-.1,1.19t0,.88q0,.47,0,.84t0,.67a5.27,5.27,0,0,0,.08.54,3,3,0,0,0,.13.44.64.64,0,0,0,.21.3.52.52,0,0,0,.31.09,1.38,1.38,0,0,0,.6-.15,3.39,3.39,0,0,0,.65-.42,7.81,7.81,0,0,0,.7-.64q.36-.37.75-.81l.7-.8.53-.63.37-.41q.14-.15.2-.15a.18.18,0,0,1,.15.06A.44.44,0,0,1,806.49,258.67Zm9.61-2.22q.18,0,.18.31a1.5,1.5,0,0,1-.15.62,4.15,4.15,0,0,1-.33.6,12.82,12.82,0,0,1-1,1.33q-.52.6-1.06,1.14a5.24,5.24,0,0,1-1.11.88,2.06,2.06,0,0,1-1,.32.78.78,0,0,1-.38-.1,1.52,1.52,0,0,1-.35-.27,1.84,1.84,0,0,1-.29-.39,2.11,2.11,0,0,1-.19-.46,2.78,2.78,0,0,1-.07-.29l-.06-.31a1.62,1.62,0,0,0-.07-.24q0-.1-.08-.1s-.06,0-.13.11l-.23.29-.29.39-.3.42-.27.38-.19.26a6.13,6.13,0,0,1-.56.61q-.32.31-.65.57a5.73,5.73,0,0,1-.6.42.93.93,0,0,1-.4.16A1.52,1.52,0,0,1,806,263a1.39,1.39,0,0,1-.48-.31,1.55,1.55,0,0,1-.33-.5,1.74,1.74,0,0,1-.13-.68,5.46,5.46,0,0,1,.23-1.44,12,12,0,0,1,.6-1.65,13,13,0,0,1,.85-1.61,8.56,8.56,0,0,1,1-1.33,4.11,4.11,0,0,1,1.26-.94,3.22,3.22,0,0,1,1.36-.3.42.42,0,0,1,.23.06.59.59,0,0,1,.16.15,1.23,1.23,0,0,1,.12.21l.11.23a.51.51,0,0,0,.13.17l.21.19.19.19a.28.28,0,0,1,.08.18,1.4,1.4,0,0,1-.06.4l-.14.5q-.08.29-.14.65a4.76,4.76,0,0,0-.06.83,5.63,5.63,0,0,0,0,.7,4.84,4.84,0,0,0,.15.75,2.13,2.13,0,0,0,.26.59.45.45,0,0,0,.37.24,1,1,0,0,0,.52-.17,5,5,0,0,0,.6-.47,14.43,14.43,0,0,0,1.42-1.46q.67-.79,1.37-1.58a.33.33,0,0,1,.23-.14Zm-5.8-.67a.52.52,0,0,0,0-.09.77.77,0,0,0-.07-.16.66.66,0,0,0-.11-.15.2.2,0,0,0-.14-.06h0a1.7,1.7,0,0,0-.6.21,3,3,0,0,0-.68.54,7.06,7.06,0,0,0-.76.93,13,13,0,0,0-.82,1.39l-.29.54a6.55,6.55,0,0,0-.3.65,5.42,5.42,0,0,0-.24.76,3.64,3.64,0,0,0-.1.85.48.48,0,0,0,.17.4.56.56,0,0,0,.36.14.91.91,0,0,0,.5-.23,5.28,5.28,0,0,0,.66-.62,11.25,11.25,0,0,0,.73-.89q.37-.5.69-1a10.49,10.49,0,0,0,.55-1,4.36,4.36,0,0,0,.32-.93l.05-.3.06-.35,0-.32A2,2,0,0,0,810.3,255.78Zm18.38.89a2.27,2.27,0,0,1-.15.74,3.15,3.15,0,0,1-.4.77,9.93,9.93,0,0,1-.72.91q-.4.45-.84.87t-.89.77a9.28,9.28,0,0,1-.87.61,5.27,5.27,0,0,1-.8.41,1.81,1.81,0,0,1-.66.15,1.36,1.36,0,0,1-.63-.14,1.45,1.45,0,0,1-.46-.37,2.11,2.11,0,0,1-.32-.55,5.65,5.65,0,0,1-.23-.67,7.12,7.12,0,0,1-.16-.72l-.11-.72-.43.73-.5.82q-.26.42-.53.81t-.51.68a6.63,6.63,0,0,1-.58.61,4.39,4.39,0,0,1-.67.51,3.69,3.69,0,0,1-.74.35,2.47,2.47,0,0,1-.8.13,1.06,1.06,0,0,1-.95-.55,2.42,2.42,0,0,1-.34-1.28,5.37,5.37,0,0,1,0-.71q0-.37.11-.74l.13-.72q.06-.35.08-.67,0-.13,0-.32t0-.45v-.42q0-.19,0-.37t0-.35q0-.17,0-.36a1.11,1.11,0,0,1,.21-.5.59.59,0,0,1,.5-.21q.7,0,.7,1.08a2.77,2.77,0,0,1,0,.41q0,.23-.08.47l-.1.5q0,.25-.09.49l-.15.67q-.08.33-.14.65t-.1.61a4.22,4.22,0,0,0,0,.54,1.51,1.51,0,0,0,0,.29,1.42,1.42,0,0,0,.09.3.68.68,0,0,0,.16.23.35.35,0,0,0,.24.09,1.56,1.56,0,0,0,.82-.25,4.41,4.41,0,0,0,.79-.62,8.31,8.31,0,0,0,.71-.79q.33-.42.58-.77a6.75,6.75,0,0,0,.48-.83q.24-.48.46-1t.42-1l.36-.92q.36-.94.64-.94a.38.38,0,0,1,.27.07.45.45,0,0,1,.07.29,4.14,4.14,0,0,1,0,.46q0,.29-.08.61t-.08.61a4.11,4.11,0,0,0,0,.45q0,.15,0,.35t0,.43q0,.22,0,.44a3.48,3.48,0,0,0,0,.37,4,4,0,0,0,.11.44,3.36,3.36,0,0,0,.19.51,1.6,1.6,0,0,0,.29.42.52.52,0,0,0,.39.17,2.06,2.06,0,0,0,.94-.27,7,7,0,0,0,1.07-.7,13,13,0,0,0,1.09-1q.54-.53,1-1.05l.37-.41a4.33,4.33,0,0,1,.34-.34,1.14,1.14,0,0,1,.25-.18Q828.69,256.55,828.69,256.67Zm6.75-.48a.82.82,0,0,1,0,.26.54.54,0,0,1-.11.19.92.92,0,0,1-.16.14l-.19.12a2.8,2.8,0,0,1-.6.21l-.72.15-.73.11-.66.1-1,.15-.74.11a4.57,4.57,0,0,0-.52.11.82.82,0,0,0-.33.17q-.16.78-.33,1.57t-.29,1.5l0,.25-.06.28q-.05.3-.08.52a3.22,3.22,0,0,0,0,.43,1.69,1.69,0,0,0,.05.47l.07.24q0,.15.1.35a2.3,2.3,0,0,1,.12.57,1.12,1.12,0,0,1-.2.59q-.19.32-.43.32t-.52-.43a4.63,4.63,0,0,1-.23-.42q-.1-.21-.18-.42a2.8,2.8,0,0,1-.12-.8q0-.09,0-.17t0-.19q0-.19.09-.47l0-.23,0-.16.31-1.59q.13-.64.19-1,.16-.8.16-.9a.26.26,0,0,0-.09-.21A.32.32,0,0,0,828,258h-.33l-.4,0-.37,0h-.21a1.29,1.29,0,0,1-.5-.09,1.11,1.11,0,0,1-.39-.27,1.24,1.24,0,0,1-.26-.42,1.55,1.55,0,0,1-.09-.55l.44,0h.79l.55,0,.58-.05.39,0q.18,0,.4-.63.11-.32.2-.66t.17-.69q.08-.36.14-.64l.1-.47s0-.16.07-.38,0-.22.06-.32,0-.19,0-.27.08-.42.12-.6a4,4,0,0,1,.15-.5.57.57,0,0,1,.54-.44q.57,0,.57.7a3.55,3.55,0,0,1-.17,1,18.33,18.33,0,0,0-.73,3.16q0,.32.28.32.69,0,1.41,0t1.39-.11l.62-.07.5-.08.44-.07.45-.07h.12a.34.34,0,0,1,.14,0,.27.27,0,0,1,.18.28Zm6.66,1.54a.86.86,0,0,1,.07.29,1.11,1.11,0,0,1-.14.49,6.24,6.24,0,0,1-.4.7q-.26.39-.6.83t-.71.89q-.43.51-.9,1t-1,.92a3.16,3.16,0,0,1-1.91.89A1.68,1.68,0,0,1,835,263a4.08,4.08,0,0,1-.69-1.69,11,11,0,0,1-.18-2q0-.44.09-1.36,0-.46.09-.79a4.79,4.79,0,0,1,.1-.54,1.39,1.39,0,0,1,.45-.7,1.09,1.09,0,0,1,.73-.32q.21,0,.21.44a5,5,0,0,1,0,.66q0,.37-.1.73-.1.67-.15,1.21t0,.93a7.34,7.34,0,0,0,.21,1.74q.21.9.77.9a2.6,2.6,0,0,0,1.31-.46q.37-.24.75-.53a9.51,9.51,0,0,0,.75-.65q.38-.36.73-.72t.69-.75q.34-.38.6-.72t.47-.61l0-.06,0-.08,0-.06a0,0,0,0,1,0,0q.11,0,.16.19Zm-4.93-6.65a1.68,1.68,0,0,1-.26.95.82.82,0,0,1-.74.39,2.6,2.6,0,0,1-.68-.1q-.37-.1-.37-.33a1.5,1.5,0,0,1,.23-.8,2.13,2.13,0,0,1,.56-.62.9.9,0,0,1,.34-.17,1.4,1.4,0,0,1,.67.13A.58.58,0,0,1,837.16,251.07Zm11.91,6.32a.8.8,0,0,1-.07.3,2.22,2.22,0,0,1-.18.35q-.11.18-.26.36l-.29.36-.24.29-.29.33-.39.43-.52.57-.59.61-.66.63-.65.59-.54.5-1,1q-.5.45-1,.81a2.88,2.88,0,0,1-1.51.72,1.13,1.13,0,0,1-.44-.11q-.26-.11-.26-.31a1.08,1.08,0,0,1,.37-.87,5.37,5.37,0,0,1,1.15-.65,4.89,4.89,0,0,0,1.15-.67,1.1,1.1,0,0,0,.38-.89,3.1,3.1,0,0,0-.53-1.14l-.46-.8q-.2-.36-.35-.65a2.84,2.84,0,0,1-.29-1.25,4.16,4.16,0,0,1,.19-1.2,3,3,0,0,1,.29-.72,4.29,4.29,0,0,1,.44-.65,2.48,2.48,0,0,1,.48-.46.72.72,0,0,1,.43-.16q.67,0,.67.89a1.17,1.17,0,0,1-.22.67,3.1,3.1,0,0,1-.26.32l-.35.35-.32.32-.22.23a2.82,2.82,0,0,0,.24,1q.13.29.3.63t.39.73q.22.39.37.7l.23.46s0,0,.08,0a.87.87,0,0,0,.37-.17q.26-.17.63-.47t.79-.68q.43-.39.86-.82t.73-.78l.55-.62.39-.45a.79.79,0,0,1,.14-.16.16.16,0,0,1,.11.05.5.5,0,0,1,.1.13.81.81,0,0,1,.06.17A.67.67,0,0,1,849.06,257.4Zm5.42-1.66a.71.71,0,0,1-.09.38.59.59,0,0,1-.21.2.74.74,0,0,1-.27.09l-.26,0-1.31.12-1.22.13-.9.12q-.36.06-.36.09l-.14.61-.18.79-.18.87q-.09.45-.16.85t-.12.73a4,4,0,0,0,0,.52q0,.18,0,.44a1.87,1.87,0,0,0,.11.49,1.05,1.05,0,0,0,.26.4.63.63,0,0,0,.46.16,1,1,0,0,0,.39-.11,3.41,3.41,0,0,0,.51-.31,6.08,6.08,0,0,0,.57-.47q.3-.27.59-.6a3.55,3.55,0,0,1,.32-.31.55.55,0,0,1,.37-.15q.28,0,.28.3a.88.88,0,0,1,0,.29,1.74,1.74,0,0,1-.13.28,2.94,2.94,0,0,1-.18.28l-.22.29-.23.29q-.15.18-.36.38t-.47.41a4.15,4.15,0,0,1-.54.38,3.38,3.38,0,0,1-.6.27,1.9,1.9,0,0,1-.62.11,1.73,1.73,0,0,1-.75-.15,1.39,1.39,0,0,1-.49-.38A1.78,1.78,0,0,1,848,263a3.49,3.49,0,0,1-.15-.61,4.46,4.46,0,0,1,0-.6q0-.29,0-.51a4.71,4.71,0,0,1,0-.63q0-.36.12-.77t.16-.83q.09-.42.16-.81t.12-.7a3.51,3.51,0,0,0,0-.51q0-.11-.1-.12a.92.92,0,0,0-.26,0l-.36.05a1.29,1.29,0,0,1-.42,0,1.27,1.27,0,0,1-.26-.08.72.72,0,0,1-.22-.14.64.64,0,0,1-.15-.23,1,1,0,0,1-.06-.35.45.45,0,0,1,.13-.37.46.46,0,0,1,.3-.1h1.79a.44.44,0,0,0,.12-.17q.07-.15.16-.38l.19-.53.2-.61.2-.64.18-.61a1.69,1.69,0,0,1,.31-.66.57.57,0,0,1,.44-.2.55.55,0,0,1,.29.07.58.58,0,0,1,.19.18.77.77,0,0,1,.1.23.9.9,0,0,1,0,.22,1.16,1.16,0,0,1,0,.2l-.13.41-.18.55-.2.61-.19.6-.16.5,1.2-.1.84-.09.6-.06.47,0a3.39,3.39,0,0,1,.54,0,1,1,0,0,1,.31.1.33.33,0,0,1,.15.16A.62.62,0,0,1,854.49,255.73Z" transform="translate(-484.06 -171.21)"/><rect class="cls-3" x="33.94" y="59.71" width="339" height="12.58"/><rect class="cls-3" x="39.49" y="61.17" width="32.53" height="9.32"/><ellipse class="cls-4" cx="55.92" cy="65.65" rx="6.59" ry="3.15"/><rect class="cls-3" x="232.56" y="54.29" width="4.67" height="13.46"/><rect class="cls-3" x="315.25" y="61.46" width="4.4" height="10.14"/><rect class="cls-3" x="323.49" y="61.46" width="4.4" height="10.14"/><ellipse class="cls-4" cx="185.45" cy="66.35" rx="6.73" ry="4.19"/><ellipse class="cls-4" cx="252.48" cy="66.35" rx="6.73" ry="4.19"/><ellipse class="cls-4" cx="268.41" cy="66.35" rx="6.73" ry="4.19"/><ellipse class="cls-4" cx="201.93" cy="66.35" rx="6.73" ry="4.19"/><ellipse class="cls-4" cx="284.35" cy="66.35" rx="6.73" ry="4.19"/><ellipse class="cls-4" cx="299.73" cy="66.35" rx="6.73" ry="4.19"/><ellipse class="cls-3" cx="359.62" cy="66.35" rx="6.73" ry="4.19"/><ellipse class="cls-3" cx="343.69" cy="66.35" rx="6.73" ry="4.19"/><ellipse class="cls-3" cx="159.63" cy="66" rx="6.73" ry="4.19"/><ellipse class="cls-4" cx="217.32" cy="66.35" rx="6.73" ry="4.19"/><line class="cls-5" x1="141.63" y1="59.71" x2="141.63" y2="72.29"/></svg>